<?xml version="1.0" encoding="UTF-8"?>
<svg width="40px" height="40px" viewBox="0 0 40 40" version="1.1" xmlns="http://www.w3.org/2000/svg" xmlns:xlink="http://www.w3.org/1999/xlink">
    <!-- Generator: Sketch 41.2 (35397) - http://www.bohemiancoding.com/sketch -->
    <title>logo</title>
    <desc>Created with Sketch.</desc>
    <defs></defs>
    <g id="Page-1" stroke="none" stroke-width="1" fill="none" fill-rule="evenodd">
        <g id="logo">
            <g id="Group-2-Copy" transform="translate(20.009975, 20.000000) rotate(180.000000) translate(-20.009975, -20.000000) translate(4.000000, 0.000000)">
                <path d="M17.0329229,39.8678807 C14.1128792,36.8404882 14.3683889,36.5822925 12.5616547,35.5577575 C10.4799312,34.3772859 8.13072613,33.5939902 8.13072613,33.2507078 C8.33880257,31.3791471 8.55984194,29.2145791 9.83213667,28.016625 C11.4182961,26.5231455 14.2351481,26.231351 16.0202446,26.3947032 C17.2547289,26.5076696 21.2302297,26.9991966 22.2113099,27.194072 C23.1923901,27.3889474 24.900633,32.0321513 24.3791675,32.437896 C21.0017712,35.0657989 17.4599802,35.0899817 17.0329229,39.8678807 Z" id="Path" fill="#1C2E1C"></path>
                <path d="M17.5505272,35.8326235 C18.238765,35.0206594 19.0387129,34.4530971 20.3940003,33.7029507 C20.451633,33.6710512 21.5284082,33.0853868 21.8473676,32.904593 C22.4007242,32.5909371 22.8601495,32.3059628 23.2958619,31.9989848 C23.3506562,31.9603799 23.4048951,31.9215364 23.4586122,31.8824195 C23.4494644,31.8214433 23.4371105,31.7522075 23.4214419,31.6762156 C23.332718,31.2459093 23.1553008,30.6756683 22.9300046,30.1009902 C22.6976082,29.5082012 22.433425,28.958808 22.1887963,28.563098 C22.0735428,28.3766647 21.968737,28.2345505 21.8866638,28.1481809 C20.8322315,27.9614147 17.2572012,27.5095699 15.9293437,27.388059 C13.8964218,27.2020285 11.6440194,27.6807046 10.5159436,28.7428665 C9.87602404,29.3453954 9.51222053,30.3773754 9.27906536,32.0506037 C9.24484817,32.2961619 9.22223982,32.4748893 9.18423442,32.8074697 C9.32304376,32.8778449 9.50169446,32.9631012 9.73198294,33.0693334 C9.84853824,33.1231004 10.676957,33.4995331 10.9466143,33.6245134 C11.4817091,33.8725184 11.9387943,34.0944785 12.3785729,34.3236033 C12.6129794,34.4457293 12.8376082,34.5675156 13.0536992,34.6900531 C13.4820908,34.9329788 13.807998,35.1393468 14.0929383,35.3504244 C14.3290834,35.5253554 14.5393735,35.705257 14.7524264,35.9128218 C15.0237588,36.177165 15.0099811,36.1618436 15.8549792,37.11978 C16.0581145,37.3500654 16.2523103,37.5678309 16.4474246,37.7833199 C16.7044369,37.0406668 17.0713113,36.3979892 17.5505272,35.8326235 Z" id="Path" fill="#89C489"></path>
                <path d="M9.06858236,23.7827307 C10.2729126,27.1815606 10.6267534,30.3736102 8.51991116,34.8813513 C5.14228751,30.3736102 4.24748675,30.6801356 2.0082606,25.1600491 C4.24748675,25.5094685 9.41887849,19.126695 9.06858236,23.7827307 Z" id="Path-10-Copy-6" fill="#1C2E1C"></path>
                <path d="M8.12835616,24.1158874 L8.05810761,23.9176337 L8.07388728,23.7078949 C8.09141729,23.4748911 8.09216972,23.2831682 8.07904432,23.1338827 C7.70303742,23.2679252 7.15699898,23.6092346 5.91553489,24.4505954 C5.79241498,24.5340359 5.69427433,24.6002777 5.59914504,24.664046 C4.85989381,25.1595902 4.33683868,25.479151 3.82784243,25.725196 C3.68366684,25.7948894 3.54325456,25.8571309 3.4060685,25.9114228 C3.93099109,27.1112041 4.3963034,27.9994908 4.87451104,28.7409358 C5.17340526,29.2043613 5.48406435,29.6232258 5.87636664,30.1006087 C6.15260664,30.4367582 7.2843267,31.7448221 7.3236635,31.7909657 C7.64781267,32.1712056 7.95491147,32.5405641 8.26025833,32.9198085 C9.38647559,29.8380561 9.25806243,27.3041153 8.12835616,24.1158874 Z" id="Path" fill="#89C489"></path>
                <path d="M23.0587164,19.8924564 C22.7084202,15.2364207 24.3132547,15.8107661 26.5524809,15.4613466 C31.5647549,17.7377844 33.6803824,24.0304837 24.8285536,33.2253351 C20.5743454,29.7091256 21.8543861,23.2912863 23.0587164,19.8924564 Z" id="Path-10-Copy-5" fill="#1C2E1C"></path>
                <path d="M29.8921817,21.7651754 C29.8538974,19.4139007 28.5800963,17.5736207 26.3968832,16.4914917 C26.2358593,16.5121829 26.0466464,16.53248 25.6950387,16.5691831 C24.7823478,16.6644557 24.5049492,16.7488707 24.3445287,16.9465555 C24.0651576,17.2908222 23.929197,18.1665973 24.0534115,19.8176206 L24.0691911,20.0273594 L23.9989426,20.225613 C23.2784356,22.2590092 22.8438181,24.4713286 22.8938827,26.4901489 C22.947676,28.6593277 23.5505433,30.4601947 24.7866033,31.8127403 C28.2965493,27.9755368 29.9376043,24.5548524 29.8921817,21.7651754 Z" id="Path" fill="#89C489"></path>
                <path d="M17.7969735,16.3409014 C17.7969735,16.1452735 17.7412829,14.2329269 20.3506024,15.1620948 C22.9599219,16.0912627 25.6911731,19.7066447 25.9868115,22.8521966 C26.28245,25.9977485 23.8725452,29.1809539 20.0327307,31.9885832 C16.1385599,28.298005 17.7969735,16.5365293 17.7969735,16.3409014 Z" id="Path-7-Copy" fill="#1C2E1C"></path>
                <path d="M24.993682,22.9455371 C24.7375263,20.2200766 22.2883986,16.9109992 20.0159774,16.1017994 C19.4541483,15.9017344 19.09626,15.871818 18.9171268,15.9308248 C18.8749048,15.9447328 18.8642803,15.9556469 18.8420728,16.010021 C18.8067858,16.09642 18.7939035,16.2019823 18.7944238,16.3224624 C18.7944797,16.3806394 18.6723556,17.4889009 18.6154437,18.156924 C18.428914,20.3463767 18.3770621,22.5640017 18.5388819,24.6334063 C18.7461136,27.283553 19.2904803,29.3541227 20.1777461,30.627943 C23.5253196,28.0021091 25.2178027,25.3301498 24.993682,22.9455371 Z" id="Path" fill="#89C489"></path>
                <path d="M22.4925845,15.2041771 C22.1422884,10.5481414 24.4453772,11.2222374 26.6846034,10.872818 C31.6968774,13.1492558 31.1798628,17.8065578 31.7269327,24.7402977 C26.1009585,24.5082606 21.2882542,18.603007 22.4925845,15.2041771 Z" id="Path-10-Copy-3" fill="#1C2E1C"></path>
                <path d="M30.5218115,21.6218797 C30.3150417,18.2084549 30.1262436,16.7239365 29.620932,15.3229285 C29.0572287,13.7600262 28.1206184,12.6865268 26.5273383,11.9017471 C26.310843,11.9288133 26.1071061,11.9476049 25.6926181,11.9825431 C24.5936719,12.0751759 24.1983481,12.1710663 23.9318404,12.4194277 C23.5630539,12.7631037 23.3701705,13.5727612 23.4872796,15.1293413 L23.5030593,15.3390801 L23.4328107,15.5373337 C22.9934525,16.7772791 23.6937265,18.7379276 25.2862647,20.4885424 C26.7441252,22.0911113 28.6701762,23.2314154 30.644363,23.6115163 C30.6172392,23.1951144 30.5826713,22.626574 30.5218115,21.6218797 Z" id="Path" fill="#6BB36B"></path>
                <path d="M18.0640597,9.27076839 C19.2509557,5.92114112 19.9128156,6.35140664 22.1520418,6.00198722 C27.1643158,8.27842503 26.9181138,9.80488233 31.9270757,13.9796992 C26.3011016,13.7476621 16.8597294,12.6695983 18.0640597,9.27076839 Z" id="Path-10-Copy" fill="#1C2E1C"></path>
                <path d="M28.2839794,11.9952937 C27.8933921,11.6015677 26.6232804,10.2714098 26.3374531,9.98628632 C25.6208447,9.27144259 25.0189884,8.76500273 24.2663247,8.26901595 C23.6395309,7.85597423 22.9066249,7.45313678 22.0038063,7.03184612 C21.9177106,7.04370122 21.8290788,7.05530575 21.7353328,7.06708619 C21.622447,7.08127181 21.2727822,7.12325423 21.2526578,7.12572337 C20.2698787,7.24630425 20.0928509,7.33230618 19.7413822,7.91357409 C19.5193385,8.28079559 19.280836,8.82345262 19.0042859,9.60392507 C18.8807018,9.95270094 18.9985673,10.2247544 19.5164236,10.6001936 C20.15363,11.0621601 21.2348541,11.4871549 22.6746052,11.8446769 C24.4575393,12.2874188 26.710021,12.609113 29.111076,12.807449 C28.8312548,12.5401254 28.557221,12.2707311 28.2839794,11.9952937 Z" id="Path" fill="#63A663"></path>
                <path d="M16.6617536,4.28927681 C21.8776201,4.95168329 20.9916051,5.94276029 27.3994701,7.86003741 C18.2381936,9.82056577 19.9858652,8.09772444 16.6617536,8.09772444 C13.337642,8.09772444 13.5758275,4.62225589 16.6617536,4.28927681 Z" id="Path-4" fill="#1C2E1C"></path>
                <path d="M23.127319,7.40606559 C22.4951727,7.13743741 20.8967606,6.38696466 20.8511827,6.3666524 C19.6570766,5.83448647 18.6118543,5.54874541 16.6595817,5.29470994 C15.7645178,5.42284811 15.2698502,5.89569863 15.2549628,6.350969 C15.2496405,6.51372955 15.3147561,6.65868179 15.4643347,6.78343357 C15.6943044,6.97523325 16.0934766,7.1002182 16.6617536,7.1002182 C17.6594418,7.1002182 18.2056344,7.20617089 19.1091811,7.49550975 C19.8932442,7.7465871 20.2872956,7.817306 21.1811648,7.7977594 C21.7992386,7.78424374 22.5672101,7.71146279 23.5209903,7.57002996 C23.3878788,7.51569909 23.256765,7.4610732 23.127319,7.40606559 Z" id="Path" fill="#4D804D"></path>
                <path d="M15.9547685,16.8141785 C15.9547685,16.9989866 19.6868087,24.8860426 10.9831729,31.6420126 C8.39102049,29.2961195 6.24058905,27.6664921 6.51987626,24.6949153 C6.79916347,21.7233384 11.0773738,16.5783469 13.5423764,15.7005696 C16.007379,14.8227924 15.9547685,16.6293705 15.9547685,16.8141785 Z" id="Path-7" fill="#1C2E1C"></path>
                <path d="M12.9843747,28.368902 C14.5458447,26.5059393 15.3909868,24.5451674 15.6596409,22.5323131 C15.8598997,21.0319014 15.7300223,19.617516 15.3878894,18.3188474 C15.3096137,18.0217284 15.2277236,17.7594245 15.1376028,17.5020692 C15.122237,17.4581897 15.10718,17.415992 15.0900913,17.3687241 C15.0827895,17.3485269 15.0564797,17.276132 15.050672,17.2600394 C15.0349327,17.2164267 15.0245575,17.1868362 15.0149403,17.1572123 C15.0061389,17.1301016 14.9984584,17.1044577 14.991043,17.0756539 C14.9699589,16.9937564 14.9572623,16.9229755 14.9572623,16.8141785 C14.9577785,16.6893413 14.9463683,16.5958419 14.9163971,16.5224585 C14.9012023,16.4852547 14.9028367,16.4869336 14.8793081,16.4791832 C14.8251069,16.4613292 14.7361032,16.4524851 14.6042331,16.4635083 C14.4125178,16.4795341 14.1700978,16.5359039 13.8770014,16.6402743 C12.9009019,16.9878593 11.3546575,18.3287652 9.99069374,20.0353432 C8.57805874,21.8028181 7.62212607,23.6272311 7.51300578,24.7882557 C7.37943606,26.2094188 7.88956913,27.2894642 9.23546976,28.670052 C9.54080896,28.9832605 9.88773067,29.3124265 10.3511203,29.7330873 C10.461771,29.8335349 10.7409502,30.0840188 11.0166318,30.3312936 C11.7654395,29.6973395 12.4197836,29.0425058 12.9843747,28.368902 Z" id="Path" fill="#89C489"></path>
                <path d="M11.0814184,19.333697 C12.2857487,22.7325269 5.88078014,26.3140976 3.52491904,29.5579411 C-0.268332202,23.3971711 0.346536875,17.8999766 7.43214317,14.2643392 C9.67136933,14.6137586 11.4317146,14.6776613 11.0814184,19.333697 Z" id="Path-10-Copy-4" fill="#1C2E1C"></path>
                <path d="M6.28591911,25.3391164 C7.85473419,23.9147954 8.61397432,23.165526 9.25397036,22.345231 C10.1203686,21.2347519 10.394542,20.3818509 10.1411922,19.6668537 L10.0709437,19.4686001 L10.0867233,19.2588613 C10.2238429,17.4363079 10.0241781,16.4378753 9.60257952,15.9705465 C9.30234409,15.6377449 8.86422568,15.4923522 7.66945893,15.3098063 C7.6561365,15.3077708 7.6317308,15.3040524 7.60461852,15.299924 C2.0564652,18.2631372 0.868652998,22.4576152 3.67698274,27.813293 C4.23839,27.2159484 5.00056444,26.5060847 6.28591911,25.3391164 Z" id="Path" fill="#6BB36B"></path>
                <path d="M12.5475177,8.78409334 C13.8520023,12.4655761 3.55497974,19.3138248 0.607465711,24.0819825 C-1.16661471,19.7391287 1.26102985,9.71873402 6.69013367,7.25298351 C9.53066898,6.97653752 11.2619173,5.15590498 12.5475177,8.78409334 Z" id="Path-10-Copy-2" fill="#1C2E1C"></path>
                <path d="M2.28819568,20.4264822 C3.12041155,19.5464204 3.8149275,18.8624491 5.55498342,17.1840276 C5.62999208,17.1116742 5.66039837,17.0823416 5.70494706,17.0393574 C8.17437227,14.6566552 9.32306951,13.4738578 10.291832,12.2262644 C11.4163638,10.7780677 11.8250997,9.73194252 11.6072915,9.11725002 C11.2345055,8.06518274 10.8995511,7.66561885 10.5553007,7.57745498 C10.2452103,7.49803962 9.98810839,7.542563 8.66693087,7.88487891 C7.993033,8.05948524 7.49442437,8.16504302 6.96304719,8.22696613 C4.79860495,9.28354852 2.96517198,11.8996608 1.89848879,15.2649658 C1.17546529,17.5460504 0.901502231,19.9072112 1.08767435,21.7626944 C1.44276212,21.3417206 1.84201876,20.8983108 2.28819568,20.4264822 Z" id="Path" fill="#63A663"></path>
                <path d="M9.09990648,21.4224205 C9.2807225,18.7468376 11.4503027,14.8003406 14.7983557,14.4433837 C18.1464087,14.0864269 20.3289627,15.6807201 23.2710217,19.9115493 C23.5317955,23.930798 19.2300012,24.1917667 16.3829197,32.095932 C13.6756254,25.1632637 9.2807225,25.0687734 9.09990648,21.4224205 Z" id="Path-6" fill="#1C2E1C"></path>
                <path d="M17.783863,26.9951018 C18.4088979,26.0425409 19.0384444,25.2462553 19.8680112,24.3083566 C20.0405791,24.1132533 20.6342818,23.4534651 20.755871,23.3161002 C21.0593123,22.9732886 21.2762187,22.7139023 21.4602599,22.4694558 C22.0380787,21.7019877 22.2889084,21.0682746 22.2851226,20.2426747 C19.5266817,16.3325804 17.6657003,15.1408377 14.9041067,15.4352685 C13.6588318,15.5680351 12.4962923,16.3613052 11.57087,17.6463452 C10.7404562,18.7994566 10.1942609,20.2426142 10.099496,21.4306119 C10.1533569,22.2542499 10.4788205,22.8538381 11.2410567,23.6352951 C11.4235457,23.8223859 11.6278181,24.0179499 11.9184008,24.2864035 C11.9063324,24.2752541 12.5326564,24.8500911 12.7229472,25.0280474 C13.4435126,25.7019069 14.0028296,26.2795747 14.5543003,26.948879 C15.2141564,27.7497276 15.8048217,28.6218985 16.3323067,29.6014655 C16.7745521,28.6587507 17.2574273,27.7973962 17.783863,26.9951018 Z" id="Path" fill="#6BB36B"></path>
                <path d="M7.59302915,8.87780549 C12.0801512,7.9818033 13.1470672,10.2144493 13.4663342,13.8659211 C13.8329139,18.058511 12.6632389,19.215438 9.93570761,24.2553772 C6.87305175,21.2100608 2.56555876,15.3316903 7.59302915,8.87780549 Z" id="Path-10" fill="#1C2E1C"></path>
                <path d="M10.9883522,20.2997784 C11.5536639,19.2619074 11.8858478,18.5607815 12.1166943,17.890819 C12.5099157,16.7496125 12.6186985,15.6235236 12.4726191,13.9528068 C12.3110027,12.1043921 11.9691563,10.9775795 11.3734516,10.3577949 C10.7797668,9.74011197 9.78689018,9.51658015 8.15451936,9.7887577 C6.25721278,12.3726564 5.86797808,14.943271 6.68257266,17.5469596 C7.23144832,19.3013308 8.29387922,20.9841906 9.71964532,22.5798102 C10.2615199,21.6033918 10.8865314,20.4867139 10.9883522,20.2997784 Z" id="Path" fill="#63A663"></path>
                <path d="M15.394611,12.3702504 C16.4717308,8.82980985 16.6943108,9.75004687 18.7550655,7.42450514 C20.3232292,9.06322745 28.4499688,11.2147366 23.1684461,24.0763326 C20.0247034,18.4817254 14.324434,15.8878702 15.394611,12.3702504 Z" id="Path-10" fill="#1C2E1C"></path>
                <path d="M18.349834,9.26618424 C18.2394658,9.36825372 17.7304201,9.82317298 17.6221218,9.92802262 C17.402527,10.1406245 17.267757,10.3130848 17.1247287,10.5766923 C16.9054525,10.9808279 16.6692501,11.607708 16.3489296,12.6605858 C16.1860719,13.1958912 16.2466572,13.7113506 16.5401641,14.3166069 C16.8402835,14.9354993 17.3636333,15.6163373 18.2391016,16.5592078 C18.4470144,16.7831278 20.3411622,18.7422681 20.9385102,19.4017607 C21.6997573,20.2422035 22.3576697,21.0432614 22.9357273,21.8548293 C23.9290634,18.8983719 24.1513087,16.4997309 23.7343898,14.5676553 C23.3510926,12.7913882 22.4577846,11.4739118 21.0802544,10.3356789 C20.6112942,9.94818402 20.210448,9.6677286 19.4240236,9.15342036 C19.19656,9.00466302 19.0113849,8.88236448 18.8563725,8.77689143 C18.6881482,8.94689918 18.5213155,9.1075965 18.349834,9.26618424 Z" id="Path" fill="#63A663"></path>
                <path d="M12.6355254,19.2567166 C13.1667657,18.1802087 14.0838334,16.4989272 14.7252961,17.9229063 C15.3667589,19.3468855 15.7746503,24.3653988 15.9631195,24.3561993 C16.1515888,24.3469999 15.631137,18.7838887 15.8138833,17.7323671 C15.9966295,16.6808455 16.943262,16.7426161 17.8950329,17.6499669 C18.8468039,18.5573176 15.1517203,14.1966751 14.9816377,14.2651075 C13.46122,14.4734246 12.6629275,18.2397005 12.6355254,19.2567166 Z" id="Path-5" fill="#1C2E1C"></path>
                <path d="M11.429142,5.63678694 C11.429142,5.63678694 9.36580641,7.86286018 8.16532887,9.5748909 C7.08440701,11.1164203 5.62626637,12.4805175 0.275385754,12.2426356 C4.95372896,9.33165134 4.13028226,8.22738318 6.74714928,6.4966482 C9.3640163,4.76591321 11.429142,5.63678694 11.429142,5.63678694 Z" id="Path" fill="#1C2E1C"></path>
                <path d="M7.29741546,7.32864929 C6.74918568,7.69123572 6.35595438,8.0280703 5.99287009,8.42431583 C5.84890985,8.58142425 5.71256529,8.74338882 5.52269363,8.97959246 C4.69608253,10.007911 4.54914754,10.1799245 3.97784572,10.7218823 C3.82717518,10.8648139 3.66858008,11.0081568 3.50104395,11.152481 C4.27230817,11.0503249 4.90654625,10.8843729 5.42654341,10.6600974 C6.25400564,10.3032117 6.76346922,9.83667141 7.34860098,9.00220054 C7.57454505,8.67997611 7.83591362,8.33105084 8.12844054,7.95882271 C8.28013596,7.76579669 8.43945602,7.56747658 8.60554751,7.3646236 C8.84653241,7.07030086 9.09613978,6.77316245 9.3498092,6.47742299 C8.68916131,6.5912434 8.00268925,6.86219761 7.29741546,7.32864929 Z" id="Path" fill="#4D804D"></path>
                <path d="M15.3352186,4.40135875 C15.3352186,4.40135875 15.9359746,5.59895696 12.5404611,6.45070291 C9.14494759,7.30244885 6.28519272,5.27928778 6.87529224,2.55494077 C10.6541264,4.87005143 15.3352186,4.40135875 15.3352186,4.40135875 Z" id="Path-8" fill="#1C2E1C"></path>
                <path d="M12.2977613,5.48317228 C10.3552355,5.97044425 8.71532945,5.36187569 8.08014388,4.27843191 C8.1853281,4.32175713 8.29134674,4.36383286 8.39817883,4.40467323 C9.70884292,4.90572118 11.0979944,5.2068878 12.5090673,5.34767011 C12.5813233,5.35487907 12.6530584,5.36161914 12.72425,5.36790438 C12.5897511,5.40711995 12.4476345,5.44557742 12.2977613,5.48317228 Z" id="Path" fill="#3D663D"></path>
                <path d="M7.13730283,9.81297919 C7.39934365,8.31427099 10.3549389,5.6425248 12.7949157,5.28734452 C15.2348925,4.93216424 17.8553341,5.11468155 19.8979386,8.50251018 C20.1585879,13.5466022 16.5191696,14.3021634 15.442132,18.8013609 C13.4298322,15.160763 10.8342718,16.8242931 7.13730283,9.81297919 Z" id="Path-9" fill="#1C2E1C"></path>
                <path d="M16.7306998,14.1163384 C16.7998508,14.0240531 17.0904886,13.6387933 17.1651069,13.539108 C17.8424203,12.6342597 18.1995201,12.0677953 18.4725702,11.4004126 C18.784969,10.6368546 18.9357765,9.80664903 18.9113242,8.80420982 C18.1035834,7.53944924 17.1993266,6.79391007 16.1663922,6.43297046 C15.2599997,6.11624853 14.2500396,6.08354569 12.9386054,6.27444734 C12.0009703,6.41093613 10.8254499,7.02070623 9.78900423,7.88678238 C9.01813535,8.53093689 8.4386969,9.23228284 8.21402244,9.71017551 C9.1476251,11.4215378 10.0438391,12.6359262 10.9707836,13.535784 C11.6635771,14.208333 11.8675282,14.3522488 13.411144,15.345733 C14.1151455,15.7988343 14.6586017,16.2078495 15.1207641,16.6769656 C15.5033198,15.8563907 16.0159477,15.0702083 16.7306998,14.1163384 Z" id="Path" fill="#4D804D"></path>
                <path d="M10.4260832,7.37238934 C10.9544011,7.13991389 12.7251208,5.71554512 13.3665835,7.13952424 C14.0080463,8.56350335 14.2208931,11.2461522 14.367207,11.2146879 C14.5135209,11.1832236 13.8791693,8.0912952 14.0619155,7.03977361 C14.2446618,5.98825203 15.1569806,6.14839853 15.8914238,6.31380533 C16.625867,6.47921213 14.4334963,5.01729076 13.4663342,5.27348621 C11.9459165,5.4818033 10.8041907,6.29646587 10.4260832,7.37238934 Z" id="Path-5-Copy" fill="#1C2E1C"></path>
                <path d="M4.87161004,21.7955112 C4.96069397,21.7955112 5.05445371,20.9999416 6.95055246,19.0447804 C6.95055246,18.8645574 6.99926602,18.3931835 6.82585528,18.6208794 C4.32307902,21.6378 4.78252611,21.7955112 4.87161004,21.7955112 Z" id="Path-3" fill="#1C2E1C"></path>
                <path d="M12.6683292,4.71672967 C12.6683292,4.71672967 17.5436871,3.49043808 19.6582762,0.0319513716 C20.8365929,1.86572608 19.6965726,4.51486589 17.8733896,5.1737262 C16.0502065,5.8325865 12.6683292,4.71672967 12.6683292,4.71672967 Z" id="Path-8-Copy" fill="#1C2E1C"></path>
                <path d="M15.4523847,4.62028522 C15.4523847,4.62028522 17.7400148,4.11589827 18.9604115,2.11989557 C18.9604115,3.01433915 18.5639543,3.67806664 17.7127494,4.24855829 C16.8615444,4.81904995 15.4523847,4.62028522 15.4523847,4.62028522 Z" id="Path-8-Copy" fill="#3D663D"></path>
                <path id="Path-3-Copy-3" fill="#1C2E1C"></path>
                <path id="Path-3-Copy-5" fill="#1C2E1C"></path>
                <path d="M27.6995987,17.875526 C27.6995987,17.875526 24.7682551,14.0544147 24.2515781,13.0732738 C24.2515781,12.5216256 24.385398,12.87663 24.558623,13.0732738 C25.2843477,14.2078398 26.8147989,16.275717 27.6995987,17.875526 Z" id="Path-3-Copy-4" fill="#1C2E1C"></path>
                <path d="M3.8043502,14.91077 C3.97306903,15.0647795 6.02293095,11.7210879 6.3917355,11.7210879 C6.76054006,11.7210879 6.02682746,11.3190656 6.02682746,11.3190656 C6.02682746,11.3190656 3.63563137,14.7567604 3.8043502,14.91077 Z" id="Path-3-Copy" fill="#1C2E1C"></path>
            </g>
        </g>
    </g>
</svg>